<svg xmlns="http://www.w3.org/2000/svg" viewBox="0 0 69.664 32.932" width="69.664" height="32.932" fill="currentColor"><g transform="translate(-631.548 -175.652)"><path d="M 0 0 C 0 -0.737 -0.584 -1.34 -1.297 -1.34 L -5.942 -1.34 C -6.655 -1.34 -7.238 -0.738 -7.238 -0.002 L -7.238 4.799 C -7.238 5.536 -6.655 6.138 -5.942 6.138 L -1.296 6.138 C -0.583 6.138 0 5.536 0 4.799 Z M -8.891 0 C -8.891 -0.737 -9.474 -1.34 -10.188 -1.34 L -14.833 -1.34 C -15.546 -1.34 -16.128 -0.738 -16.128 -0.002 L -16.128 4.799 C -16.128 5.536 -15.545 6.138 -14.833 6.138 L -10.186 6.138 C -9.474 6.138 -8.891 5.536 -8.891 4.799 Z M -17.487 0 C -17.487 -0.737 -18.071 -1.34 -18.784 -1.34 L -23.43 -1.34 C -24.142 -1.34 -24.725 -0.738 -24.725 -0.002 L -24.725 4.799 C -24.725 5.536 -24.142 6.138 -23.43 6.138 L -18.783 6.138 C -18.07 6.138 -17.487 5.536 -17.487 4.799 Z M 14.453 -1.908 L 29.124 -1.908 C 30.049 -1.908 29.978 -0.896 29.978 -0.896 C 29.978 -0.896 31.592 10.784 22.086 10.784 L -34.166 10.784 C -36.072 10.784 -36.07 8.94 -36.07 8.94 L -36.07 -12.896 C -36.07 -12.896 -36.056 -14.806 -34.193 -14.806 L -28.143 -14.806 C -26.72 -14.806 -26.232 -13.531 -26.071 -12.933 C -25.247 -9.85 -22.435 -7.581 -19.09 -7.581 C -16.966 -7.581 -14.997 -8.521 -13.651 -9.991 C -13.166 -10.521 -12.368 -10.513 -11.893 -9.974 C -10.599 -8.504 -8.753 -7.581 -6.62 -7.581 C -3.279 -7.581 -0.465 -9.852 0.359 -12.933 C 0.52 -13.531 0.739 -14.806 2.313 -14.806 L 7.727 -14.806 C 8.279 -14.806 8.755 -14.414 8.859 -13.871 L 10.54 -5.139 C 10.901 -3.263 12.542 -1.908 14.453 -1.908" transform="matrix(1 0 0 -1 668.62 187.436)"></path><path d="M 0 0 C -1.171 0 -2.121 0.948 -2.121 2.119 C -2.121 3.29 -1.171 4.24 0 4.24 C 1.169 4.24 2.119 3.29 2.119 2.119 C 2.119 0.948 1.169 0 0 0 M 0 7.563 C -3.008 7.563 -5.444 5.125 -5.444 2.119 C -5.444 -0.887 -3.008 -3.325 0 -3.325 C 3.006 -3.325 5.444 -0.887 5.444 2.119 C 5.444 5.125 3.006 7.563 0 7.563" transform="matrix(1 0 0 -1 649.53 204.26)"></path><path d="M 0 0 C -1.169 0 -2.119 0.948 -2.119 2.119 C -2.119 3.29 -1.169 4.24 0 4.24 C 1.171 4.24 2.121 3.29 2.121 2.119 C 2.121 0.948 1.171 0 0 0 M 0 7.563 C -3.006 7.563 -5.444 5.125 -5.444 2.119 C -5.444 -0.887 -3.006 -3.325 0 -3.325 C 3.008 -3.325 5.444 -0.887 5.444 2.119 C 5.444 5.125 3.008 7.563 0 7.563" transform="matrix(1 0 0 -1 662.352 204.26)"></path></g></svg>